<svg xmlns="http://www.w3.org/2000/svg" viewBox="0 0 133.39 166.53"><defs><style>.cls-1{fill:#0088cf;}.cls-2{fill:#fff;}.cls-3{fill:#231f20;}</style></defs><title>Asset 4</title><g id="Layer_2" data-name="Layer 2"><g id="Layer_4" data-name="Layer 4"><circle class="cls-1" cx="66.69" cy="66.69" r="66.69"/><path class="cls-2" d="M33.9,97.72l.39-.29,1-.76c.82-.63,1.88-1.46,2.95-2.21.54-.37,1.07-.73,1.58-1a14.89,14.89,0,0,1,1.43-.75c.43-.2.81-.34,1.09-.47l.19-.1.15-.09a.34.34,0,0,0,.14-.21.32.32,0,0,0-.09-.24,1.12,1.12,0,0,0-.32-.25A3.5,3.5,0,0,0,41.14,91a6.44,6.44,0,0,0-.88,0,8.72,8.72,0,0,0-1,.09,12.87,12.87,0,0,0-2,.49A29.84,29.84,0,0,0,33.63,93c-1,.46-1.64.8-1.77.88l0,0h0c-.13.08-.74.53-1.57,1.13a31.32,31.32,0,0,1-2.91,1.92,12.14,12.14,0,0,1-1.54.74,8.55,8.55,0,0,1-1.4.41c-.43.09-.8.13-1.09.18a1.67,1.67,0,0,0-.36.1.33.33,0,0,0-.19.17.32.32,0,0,0,0,.25,1.14,1.14,0,0,0,.25.33,3.34,3.34,0,0,0,1.18.69l.42.13c.15,0,.3.07.46.1a6.69,6.69,0,0,0,1,.09,9.53,9.53,0,0,0,2.17-.22,19.69,19.69,0,0,0,3.79-1.29C33.08,98.16,33.77,97.8,33.9,97.72Z"/><path class="cls-2" d="M35,69.6a6.3,6.3,0,0,0,2.34.83,2.73,2.73,0,0,0,.89,0,.53.53,0,0,0,.44-.27.74.74,0,0,0-.06-.53,4.27,4.27,0,0,0-.39-.7c-.35-.53-.84-1.17-1.36-1.82a26.36,26.36,0,0,0-5.22-4.54l-1-.58c-.34-.18-.66-.34-1-.46a3.37,3.37,0,0,0-.77-.23.57.57,0,0,0-.49.1.63.63,0,0,0-.12.51,3.14,3.14,0,0,0,.23.84,8.82,8.82,0,0,0,.5,1c.2.37.43.74.67,1.1C30.66,66.42,34.64,69.41,35,69.6Z"/><path class="cls-2" d="M38.7,79.56c0-.15-.21-.25-.46-.33a3.19,3.19,0,0,0-.45-.09l-.56-.06c-.41,0-.87-.06-1.36-.1l-.76,0-.78-.05c-1.05-.08-2.11-.2-2.95-.27-.55,0-1.12-.05-1.62-.05s-1.06,0-1.62.05c-.84.06-1.89.18-2.95.27l-.79.05-.76,0c-.5,0-1,.05-1.36.1l-.56.06a3.16,3.16,0,0,0-.45.09c-.26.08-.43.18-.47.33s0,.33.24.53a3.31,3.31,0,0,0,.36.32,4,4,0,0,0,.5.34,9.89,9.89,0,0,0,1.34.66c.25.1.51.21.78.3l.82.27a18.88,18.88,0,0,0,3.16.7,17.4,17.4,0,0,0,1.74.08c.53,0,1.14,0,1.74-.08a18.81,18.81,0,0,0,3.16-.7l.82-.27c.27-.09.53-.2.78-.3a10,10,0,0,0,1.33-.66,4,4,0,0,0,.5-.34,3.31,3.31,0,0,0,.36-.32C38.65,79.89,38.74,79.71,38.7,79.56Z"/><path class="cls-2" d="M49,91.32c5.48,5,15.87,8.63,17.74,8.63s12.25-3.61,17.74-8.63C99.92,77.12,93.3,53.74,66.7,53.78S33.47,77.12,49,91.32Z"/><path class="cls-2" d="M83.24,36.89l8.14,9.88L79.29,41.65s-.48,6.07,8.62,10.87c7.57,4,10.72,1.27,11.57.25s2.9-4.56-3-10.55C89.38,35,83.24,36.89,83.24,36.89Z"/><path class="cls-2" d="M50.14,36.89,42,46.77l12.1-5.12s.48,6.07-8.62,10.87c-7.57,4-10.72,1.27-11.57.25s-2.9-4.56,3-10.55C44,35,50.14,36.89,50.14,36.89Z"/><path class="cls-2" d="M99.49,97.72l-.39-.29-1-.76c-.82-.63-1.88-1.46-2.95-2.21-.54-.37-1.07-.73-1.58-1a15.12,15.12,0,0,0-1.43-.75c-.43-.2-.81-.34-1.09-.47l-.19-.1L90.7,92a.33.33,0,0,1-.14-.21.32.32,0,0,1,.09-.24,1.12,1.12,0,0,1,.32-.25A3.5,3.5,0,0,1,92.25,91a6.44,6.44,0,0,1,.88,0,8.68,8.68,0,0,1,1,.09,13,13,0,0,1,2,.49A29.8,29.8,0,0,1,99.76,93c1,.46,1.64.8,1.77.88l0,0h0c.13.08.74.53,1.57,1.13a31.32,31.32,0,0,0,2.91,1.92,12.16,12.16,0,0,0,1.55.74,8.48,8.48,0,0,0,1.4.41c.43.09.8.13,1.09.18a1.65,1.65,0,0,1,.36.1.33.33,0,0,1,.19.17.32.32,0,0,1,0,.25,1.11,1.11,0,0,1-.25.33,3.32,3.32,0,0,1-1.18.69l-.42.13-.46.1a6.72,6.72,0,0,1-1,.09,9.53,9.53,0,0,1-2.17-.22,19.69,19.69,0,0,1-3.79-1.29C100.31,98.16,99.62,97.8,99.49,97.72Z"/><path class="cls-2" d="M98.35,69.6a6.3,6.3,0,0,1-2.34.83,2.73,2.73,0,0,1-.89,0c-.24,0-.39-.13-.44-.27a.73.73,0,0,1,.05-.53,4.33,4.33,0,0,1,.39-.7c.34-.53.84-1.17,1.35-1.82a26.36,26.36,0,0,1,5.22-4.54c.35-.21.71-.4,1-.58s.66-.34,1-.46a3.33,3.33,0,0,1,.77-.23.57.57,0,0,1,.49.1.63.63,0,0,1,.12.51,3.14,3.14,0,0,1-.23.84,8.52,8.52,0,0,1-.5,1c-.2.37-.43.74-.67,1.1C102.73,66.42,98.75,69.41,98.35,69.6Z"/><path class="cls-2" d="M94.69,79.56c0-.15.21-.25.46-.33a3.25,3.25,0,0,1,.45-.09l.56-.06c.41,0,.86-.06,1.36-.1l.76,0,.79-.05c1.05-.08,2.11-.2,2.95-.27.55,0,1.12-.05,1.62-.05s1.07,0,1.62.05c.84.06,1.89.18,2.95.27l.78.05.76,0c.5,0,1,.05,1.36.1l.56.06a3.25,3.25,0,0,1,.45.09c.26.08.42.18.46.33s0,.33-.24.53a3.34,3.34,0,0,1-.37.32,3.86,3.86,0,0,1-.5.34,10.09,10.09,0,0,1-1.33.66c-.25.1-.52.21-.78.3l-.82.27a18.83,18.83,0,0,1-3.16.7,17.38,17.38,0,0,1-1.74.08c-.53,0-1.14,0-1.74-.08a18.83,18.83,0,0,1-3.16-.7l-.82-.27c-.27-.09-.53-.2-.78-.3a9.89,9.89,0,0,1-1.34-.66,4,4,0,0,1-.5-.34,3.31,3.31,0,0,1-.36-.32C94.74,79.89,94.65,79.71,94.69,79.56Z"/><path class="cls-1" d="M66.58,94.77c-.92-.55-1.95-1-2.9-1.45A29.68,29.68,0,0,1,60,91.12,23.36,23.36,0,0,1,54.11,85c-3.05-4.66-4.44-11.21-1-16,.72-1,1.71-1.79,2.4-2.81s1.34-2.49.62-3.65-2.29-1.12-3.43-.73a6.5,6.5,0,0,0-2.64,1.83,15.82,15.82,0,0,0-3.75,7.16,18,18,0,0,0,.2,8.52,23.35,23.35,0,0,0,10,13.47,22.84,22.84,0,0,0,7,3,10.86,10.86,0,0,0,2.63.37c.34,0,.8,0,1-.39s-.2-.77-.53-1Z"/><path class="cls-3" d="M19.59,165.83a9.15,9.15,0,0,1-3.8.7c-4.06,0-7.11-2.58-7.11-7.3a7.16,7.16,0,0,1,7.51-7.56,7.72,7.72,0,0,1,3.42.64l-.45,1.52a6.76,6.76,0,0,0-2.9-.6c-3.37,0-5.61,2.16-5.61,5.93,0,3.52,2,5.79,5.53,5.79a7.44,7.44,0,0,0,3-.6Z"/><path class="cls-3" d="M21.92,152.1a19.31,19.31,0,0,1,3.56-.3c2,0,3.27.36,4.16,1.17a3.58,3.58,0,0,1,1.13,2.73,3.78,3.78,0,0,1-2.71,3.67v.06a3.59,3.59,0,0,1,2.11,2.9,22.89,22.89,0,0,0,1.11,3.95H29.36a19.27,19.27,0,0,1-1-3.44c-.43-2-1.2-2.73-2.88-2.8H23.77v6.23H21.92Zm1.86,6.55h1.9c2,0,3.24-1.09,3.24-2.73,0-1.86-1.34-2.67-3.31-2.69a7.67,7.67,0,0,0-1.84.17Z"/><path class="cls-3" d="M35.26,151.91v8.52c0,3.22,1.43,4.59,3.35,4.59,2.13,0,3.5-1.41,3.5-4.59v-8.52H44v8.39c0,4.42-2.33,6.23-5.44,6.23-2.95,0-5.17-1.69-5.17-6.15v-8.47Z"/><path class="cls-3" d="M47,164a6.58,6.58,0,0,0,3.33.94c1.9,0,3-1,3-2.46s-.77-2.11-2.71-2.86c-2.35-.83-3.8-2-3.8-4.08,0-2.24,1.86-3.91,4.65-3.91a6.53,6.53,0,0,1,3.18.7l-.51,1.52a5.72,5.72,0,0,0-2.73-.68c-2,0-2.71,1.17-2.71,2.16,0,1.34.88,2,2.86,2.78,2.43.94,3.67,2.11,3.67,4.23s-1.64,4.16-5,4.16a7.44,7.44,0,0,1-3.67-.94Z"/><path class="cls-3" d="M60.48,153.49H56.1v-1.58H66.75v1.58h-4.4V166.3H60.48Z"/><path class="cls-3" d="M69.08,161.77l-1.49,4.53H65.66l4.89-14.39h2.24L77.7,166.3h-2l-1.54-4.53Zm4.72-1.45-1.41-4.14c-.32-.94-.53-1.79-.75-2.63h0c-.21.85-.45,1.73-.73,2.6l-1.41,4.16Z"/><path class="cls-3" d="M89.55,165.83a9.15,9.15,0,0,1-3.8.7c-4.06,0-7.11-2.58-7.11-7.3a7.16,7.16,0,0,1,7.51-7.56,7.72,7.72,0,0,1,3.42.64l-.45,1.52a6.76,6.76,0,0,0-2.9-.6c-3.37,0-5.61,2.16-5.61,5.93,0,3.52,2,5.79,5.53,5.79a7.44,7.44,0,0,0,3-.6Z"/><path class="cls-3" d="M99.33,159.55H93.74v5.19H100v1.56H91.88V151.91h7.77v1.56H93.74V158h5.59Z"/><path class="cls-3" d="M104.72,161.77l-1.49,4.53H101.3l4.89-14.39h2.24l4.91,14.39h-2l-1.54-4.53Zm4.72-1.45L108,156.18c-.32-.94-.53-1.79-.75-2.63h0c-.21.85-.45,1.73-.73,2.6l-1.41,4.16Z"/><path class="cls-3" d="M115.46,166.3V151.91h2l4.61,7.28a40.75,40.75,0,0,1,2.58,4.67l0,0c-.17-1.92-.21-3.67-.21-5.91v-6h1.75V166.3h-1.88l-4.57-7.3a45.62,45.62,0,0,1-2.69-4.8l-.06,0c.11,1.81.15,3.54.15,5.93v6.15Z"/></g></g></svg>