<svg xmlns="http://www.w3.org/2000/svg" viewBox="0 0 133.38 163.19"><defs><style>.cls-1{fill:#231f20;}.cls-2{fill:#fff;}</style></defs><title>Asset 20</title><g id="Layer_2" data-name="Layer 2"><g id="Layer_20" data-name="Layer 20"><circle class="cls-1" cx="66.69" cy="66.69" r="66.69"/><path class="cls-2" d="M102.37,68.2A27.34,27.34,0,0,1,107.44,55c5.15-7.6,6.44-12.12-.66-7.49-6.6,4.3-10.6,11.8-11.13,12.84A47.8,47.8,0,0,0,72.23,39.17a5.07,5.07,0,0,1-.95-1.53c-1.66-4.34,5-9.59-4.51-7.05A43.66,43.66,0,0,0,53.53,37.3C35.45,40.67,21.68,57.72,21.68,68.2c0,2,10.17,5.59,11.11,7.93s-7.2,3.69-5.33,6.2c6.74,9,18.73,17.36,32.4,17.36a31.19,31.19,0,0,0,4.22-.29,35.41,35.41,0,0,0,7.72,3.22c9.47,2.54,2.84-2.71,4.51-7.05l.12-.29A48.3,48.3,0,0,0,95.65,76.1c.54,1,4.53,8.54,11.13,12.84,7.1,4.62,5.81.1.66-7.49A27.34,27.34,0,0,1,102.37,68.2Z"/><ellipse class="cls-1" cx="38.63" cy="57.61" rx="5.04" ry="4.95"/><path class="cls-1" d="M83,81.67c.13.11,0,.48-.09.59a5.1,5.1,0,0,1-.45.84,10.38,10.38,0,0,1-1.19,1.52,17.81,17.81,0,0,1-3.14,2.64,30.41,30.41,0,0,1-7.66,3.61A37.41,37.41,0,0,1,52.8,92.32a22.68,22.68,0,0,1-7.36-2.5,6.89,6.89,0,0,1-2.37-2c-.67-1-1.26-2.61-.3-3.6s2.63-.53,3.69,0a12,12,0,0,1,1.23.75,16.14,16.14,0,0,0,1.52.86A24,24,0,0,0,56.68,88a38,38,0,0,0,9,.14,38.64,38.64,0,0,0,8.8-1.87,26.86,26.86,0,0,0,4.86-2.2,22.5,22.5,0,0,0,2.18-1.47c.31-.24.62-.49.94-.72.09-.06.36-.3.48-.19Z"/><path class="cls-1" d="M48.34,148.56h7.75v1.56H50.2v4.78h5.44v1.54H50.2V163H48.34Z"/><path class="cls-1" d="M60.6,148.56V163H58.74V148.56Z"/><path class="cls-1" d="M63.58,160.69a6.58,6.58,0,0,0,3.33.94c1.9,0,3-1,3-2.46s-.77-2.11-2.71-2.86c-2.35-.83-3.8-2-3.8-4.08,0-2.24,1.86-3.91,4.65-3.91a6.53,6.53,0,0,1,3.18.7l-.51,1.52a5.72,5.72,0,0,0-2.73-.68c-2,0-2.71,1.17-2.71,2.16,0,1.34.87,2,2.86,2.78,2.43.94,3.67,2.11,3.67,4.23s-1.64,4.16-5,4.16a7.44,7.44,0,0,1-3.67-.94Z"/><path class="cls-1" d="M76.22,148.56v6h7v-6h1.88V163H83.18v-6.75h-7V163H74.37V148.56Z"/></g></g></svg>