<svg xmlns="http://www.w3.org/2000/svg" viewBox="0 0 133.39 164.97"><defs><style>.cls-1{fill:#f05a22;}.cls-2{fill:#fff;}.cls-3{fill:#231f20;}</style></defs><title>Asset 8</title><g id="Layer_2" data-name="Layer 2"><g id="Layer_8" data-name="Layer 8"><circle class="cls-1" cx="66.69" cy="66.69" r="66.69"/><path class="cls-2" d="M64.27,112.75a2.36,2.36,0,0,0,2.42,2.3h0a2.36,2.36,0,0,0,2.42-2.3v-9.83a2.36,2.36,0,0,0-2.42-2.3h0a2.36,2.36,0,0,0-2.42,2.3Z"/><path class="cls-2" d="M66.7,47.46c15.09-18.56,0-29.12,0-29.12S51.59,28.9,66.7,47.46Z"/><path class="cls-2" d="M46.85,60.16S44.05,77.74,68.58,80.75C65.42,57.52,46.85,60.16,46.85,60.16Z"/><path class="cls-2" d="M68.58,69.19A30.72,30.72,0,0,1,72,79.26c16.77-5.19,14.57-19.1,14.57-19.1A18.83,18.83,0,0,0,68.58,69.19Z"/><path class="cls-2" d="M68.58,86.46A30.66,30.66,0,0,1,72,96.52c16.77-5.18,14.57-19.1,14.57-19.1a19.15,19.15,0,0,0-14.18,4.47l0,.22-.24,0A18.93,18.93,0,0,0,68.58,86.46Z"/><path class="cls-2" d="M86.54,42.39s-11.52-1.64-18,9A30.73,30.73,0,0,1,72,61.49C88.75,56.29,86.54,42.39,86.54,42.39Z"/><path class="cls-2" d="M46.85,42.39S44.05,60,68.58,63C65.42,39.74,46.85,42.39,46.85,42.39Z"/><path class="cls-2" d="M46.85,77.42S44.05,95,68.58,98C65.42,74.78,46.85,77.42,46.85,77.42Z"/><path class="cls-1" d="M62.54,35.09c-.18,0-.28-.41-.31-.53a5.93,5.93,0,0,1-.19-1,10.36,10.36,0,0,1,0-2.06,18.17,18.17,0,0,1,.86-4.19,31.68,31.68,0,0,1,1.53-3.77,8.42,8.42,0,0,1,.78-1.47,1.48,1.48,0,0,1,1.7-.42,1.52,1.52,0,0,1,1,1.38,3,3,0,0,1-.68,1.39c-.71,1.1-1.37,2.22-2,3.38a25.89,25.89,0,0,0-1.62,3.84,19.64,19.64,0,0,0-.53,1.9c-.07.3-.14.59-.21.89,0,.14-.12.65-.33.66Z"/><path class="cls-1" d="M57.67,92.87c-.11.14-.51-.06-.62-.11a6.38,6.38,0,0,1-.87-.46,11.7,11.7,0,0,1-1.57-1.18,18.71,18.71,0,0,1-2.85-3.22,28.65,28.65,0,0,1-2.09-3.45c-.28-.54-.56-1.09-.8-1.65a1.31,1.31,0,0,1,.35-1.53A1.67,1.67,0,0,1,50.95,81c.57.26.71.77.9,1.3.47,1.26,1,2.51,1.53,3.73a26.94,26.94,0,0,0,2.17,3.81c.39.57.81,1.13,1.26,1.67l.58.72c.08.1.4.46.28.61Z"/><path class="cls-1" d="M57.67,75.61c-.11.14-.51-.06-.62-.11a6.38,6.38,0,0,1-.87-.46,11.63,11.63,0,0,1-1.57-1.18,18.7,18.7,0,0,1-2.85-3.22,28.74,28.74,0,0,1-2.09-3.45c-.28-.54-.56-1.09-.8-1.65A1.31,1.31,0,0,1,49.2,64,1.67,1.67,0,0,1,51,63.8c.54.28.67.83.87,1.35.47,1.26,1,2.51,1.53,3.73a26.86,26.86,0,0,0,2.13,3.73c.39.57.82,1.13,1.26,1.67l.58.72c.08.1.4.46.28.61Z"/><path class="cls-1" d="M57.67,57.49c-.11.14-.51-.06-.62-.11a6.28,6.28,0,0,1-.87-.46,11.7,11.7,0,0,1-1.57-1.18,18.73,18.73,0,0,1-2.85-3.22,28.76,28.76,0,0,1-2.09-3.45c-.28-.54-.56-1.09-.8-1.65a1.3,1.3,0,0,1,.35-1.52A1.67,1.67,0,0,1,51,45.68c.54.28.67.83.87,1.35.47,1.26,1,2.51,1.53,3.73a26.82,26.82,0,0,0,2.13,3.73c.39.57.82,1.13,1.26,1.67l.58.72c.08.1.4.46.28.6Z"/><path class="cls-3" d="M44.43,164.09a13.4,13.4,0,0,1-4.42.79,7.4,7.4,0,0,1-5.38-1.9,7.41,7.41,0,0,1-2-5.36c0-4.29,3-7.43,7.79-7.43a8.9,8.9,0,0,1,3.59.66l-.45,1.52a7.47,7.47,0,0,0-3.18-.62,5.38,5.38,0,0,0-5.79,5.78c0,3.65,2.2,5.81,5.55,5.81a6.07,6.07,0,0,0,2.48-.38v-4.29H39.69v-1.49h4.74Z"/><path class="cls-3" d="M47.27,150.34h1.86v12.83h6.15v1.56h-8Z"/><path class="cls-3" d="M58.44,150.34v8.52c0,3.22,1.43,4.59,3.35,4.59,2.13,0,3.5-1.41,3.5-4.59v-8.52h1.88v8.39c0,4.42-2.33,6.23-5.44,6.23-2.95,0-5.17-1.69-5.17-6.15v-8.47Z"/><path class="cls-3" d="M73.13,151.92H68.75v-1.58H79.4v1.58H75v12.81H73.13Z"/><path class="cls-3" d="M88.46,158H82.87v5.19H89.1v1.56H81V150.34h7.77v1.56H82.87v4.55h5.59Z"/><path class="cls-3" d="M91.51,164.73V150.34h2l4.61,7.28a40.85,40.85,0,0,1,2.58,4.67l0,0c-.17-1.92-.21-3.67-.21-5.91v-6h1.75v14.39h-1.88l-4.57-7.3a45.55,45.55,0,0,1-2.69-4.8l-.06,0c.11,1.81.15,3.54.15,5.93v6.15Z"/></g></g></svg>