<svg xmlns="http://www.w3.org/2000/svg" viewBox="0 0 133.39 156.31"><defs><style>.cls-1{fill:#00bff2;}.cls-2{fill:#fff;}.cls-3{fill:#231f20;}</style></defs><title>Asset 16</title><g id="Layer_2" data-name="Layer 2"><g id="Layer_16" data-name="Layer 16"><circle class="cls-1" cx="66.69" cy="66.69" r="66.69"/><path class="cls-2" d="M83.85,43.14s-5.51-8-6.12-10.1a23.85,23.85,0,0,1-.46-5.84H56.12A23.81,23.81,0,0,1,55.66,33c-.62,2.15-6.12,10.1-6.12,10.1-2.86,3.64-2.86,13.51-2.86,13.51v46c0,9.35,7.45,9.09,7.45,9.09H79.26s7.45.26,7.45-9.09v-46S86.71,46.78,83.85,43.14Z"/><path class="cls-2" d="M79.7,22.47a2,2,0,0,1-2,2H55.66a2,2,0,0,1-2-2h0a2,2,0,0,1,2-2H77.72a2,2,0,0,1,2,2Z"/><path class="cls-1" d="M57,108.6c0-.17-.43-.41-.54-.48s-.5-.32-.74-.49a5.37,5.37,0,0,1-1.41-1.5,7.33,7.33,0,0,1-.89-3.77c0-1.47.4-7.39.49-8.87q.61-9.12,1.23-18.23c.38-5.6.76-11.21,1.07-16.81.07-1.28.14-2.56.2-3.85a17.21,17.21,0,0,0,0-2.89,7.4,7.4,0,0,0-1-3.16,2,2,0,0,0-1.81-1.09A2.67,2.67,0,0,0,51.81,49a8.9,8.9,0,0,0-.95,3.43c-.08.9-.07,1.82-.08,2.73,0,1.21,0,2.43,0,3.64-.06,5.56-.12,11.13-.14,16.69,0,6.14,0,12.28.18,18.41.05,1.5.28,7.48.54,9a8.55,8.55,0,0,0,1.46,3.72,5.34,5.34,0,0,0,3.2,2.07c.18,0,1,.2,1,0Z"/><path class="cls-3" d="M59.69,150c-.11-2-.23-4.42-.21-6.21h-.06c-.49,1.69-1.09,3.5-1.81,5.46l-2.54,7H53.64l-2.33-6.85c-.68-2-1.26-3.89-1.67-5.59h0c0,1.79-.15,4.21-.28,6.36l-.38,6.17H47.18l1-14.39h2.37l2.46,7c.6,1.77,1.09,3.35,1.45,4.85h.06c.36-1.45.87-3,1.52-4.85l2.56-7H61l.9,14.39H60Z"/><path class="cls-3" d="M66.58,141.92v14.39H64.73V141.92Z"/><path class="cls-3" d="M69.83,141.92h1.86v12.83h6.15v1.56h-8Z"/><path class="cls-3" d="M79.91,141.92h1.86v6.94h.06c.38-.55.77-1.07,1.13-1.54l4.4-5.4h2.31L84.46,148l5.61,8.28h-2.2l-4.74-7.07-1.37,1.58v5.49H79.91Z"/></g></g></svg>