<svg xmlns="http://www.w3.org/2000/svg" viewBox="0 0 133.39 165.19"><defs><style>.cls-1{fill:#231f20;}.cls-2{fill:#fff;}</style></defs><title>Asset 9</title><g id="Layer_2" data-name="Layer 2"><g id="Layer_9" data-name="Layer 9"><circle class="cls-1" cx="66.69" cy="66.69" r="66.69"/><path class="cls-2" d="M66.7,98.72c-1.36,0-2.46,9.37-2.46,11.8s1.1,4.41,2.46,4.41,2.46-2,2.46-4.41S68.05,98.72,66.7,98.72Z"/><path class="cls-2" d="M75.54,24.89H57.85a3.88,3.88,0,0,0-3.9,3.86l-2.87,42.5A3.88,3.88,0,0,0,55,75.1H78.41a3.88,3.88,0,0,0,3.91-3.85l-2.88-42.5A3.88,3.88,0,0,0,75.54,24.89Z"/><path class="cls-2" d="M75,78.73H58.43a2.49,2.49,0,1,0,0,5h3.86a6.15,6.15,0,0,0,.31,1.68l2.73,8.36c.75,2.3,2,2.3,2.73,0l2.73-8.36a6.15,6.15,0,0,0,.31-1.68H75a2.49,2.49,0,1,0,0-5Z"/><path class="cls-1" d="M56.1,70.67c1.67.2,7.18-34.44,7.43-36.53S62.62,30.2,61,30s-3.23,1.33-3.48,3.42S54.43,70.47,56.1,70.67Z"/><path class="cls-1" d="M39.18,158.63c-.11-2-.23-4.42-.21-6.21h-.06c-.49,1.69-1.09,3.5-1.81,5.46l-2.54,7H33.14L30.82,158c-.68-2-1.26-3.89-1.66-5.59h0c0,1.79-.15,4.21-.28,6.36L28.45,165H26.67l1-14.39H30l2.45,7c.6,1.77,1.09,3.35,1.45,4.85H34c.36-1.45.88-3,1.52-4.85l2.56-7h2.37l.9,14.39H39.55Z"/><path class="cls-1" d="M46.08,150.56v8.52c0,3.22,1.43,4.59,3.35,4.59,2.13,0,3.5-1.41,3.5-4.59v-8.52h1.88V159c0,4.42-2.33,6.23-5.44,6.23-2.95,0-5.17-1.69-5.17-6.15v-8.47Z"/><path class="cls-1" d="M57.78,162.69a6.58,6.58,0,0,0,3.33.94c1.9,0,3-1,3-2.46s-.77-2.11-2.71-2.86c-2.35-.83-3.8-2-3.8-4.08,0-2.24,1.86-3.91,4.65-3.91a6.53,6.53,0,0,1,3.18.71l-.51,1.52a5.72,5.72,0,0,0-2.73-.68c-2,0-2.71,1.17-2.71,2.16,0,1.34.88,2,2.86,2.78,2.43.94,3.67,2.11,3.67,4.23s-1.64,4.16-5,4.16a7.44,7.44,0,0,1-3.67-.94Z"/><path class="cls-1" d="M71.3,152.14H66.92v-1.58H77.57v1.58h-4.4V165H71.3Z"/><path class="cls-1" d="M79.9,160.43,78.41,165H76.49l4.89-14.39h2.24L88.53,165h-2L85,160.43ZM84.62,159l-1.41-4.14c-.32-.94-.53-1.79-.75-2.63h0c-.21.85-.45,1.73-.73,2.6L80.29,159Z"/><path class="cls-1" d="M90.64,150.76a19.31,19.31,0,0,1,3.56-.3c2,0,3.27.36,4.16,1.17a3.58,3.58,0,0,1,1.13,2.73A3.78,3.78,0,0,1,96.79,158v.06a3.59,3.59,0,0,1,2.11,2.9A22.9,22.9,0,0,0,100,165H98.09a19.28,19.28,0,0,1-1-3.44c-.43-2-1.2-2.73-2.88-2.8H92.5V165H90.64Zm1.86,6.55h1.9c2,0,3.24-1.09,3.24-2.73,0-1.86-1.34-2.67-3.31-2.69a7.66,7.66,0,0,0-1.84.17Z"/><path class="cls-1" d="M102.13,150.76a26.57,26.57,0,0,1,3.95-.3c2.67,0,4.57.62,5.83,1.79a6.63,6.63,0,0,1,2,5.17,7.61,7.61,0,0,1-2.07,5.59c-1.34,1.34-3.56,2.07-6.36,2.07a29.79,29.79,0,0,1-3.37-.17ZM104,163.48a11.79,11.79,0,0,0,1.88.11c4,0,6.13-2.22,6.13-6.11,0-3.39-1.9-5.55-5.83-5.55a10.5,10.5,0,0,0-2.18.19Z"/></g></g></svg>