<svg xmlns="http://www.w3.org/2000/svg" viewBox="0 0 133.39 166.53"><defs><style>.cls-1{fill:#8e847c;}.cls-2{fill:#fff;}.cls-3{fill:#231f20;}</style></defs><title>Asset 5</title><g id="Layer_2" data-name="Layer 2"><g id="Layer_5" data-name="Layer 5"><circle class="cls-1" cx="66.69" cy="66.69" r="66.69"/><path class="cls-2" d="M101.9,41.89c-2.14-1.11-4.79-1.23-6,.65-2.37,3.75-4.27,4.91-9,8.16C84.87,52.12,76.51,58.88,72.21,68c.63,1.4,1.21,2.83,1.72,4.3.39-.9.82-1.8,1.28-2.69a53.31,53.31,0,0,1,3.62-6,50.68,50.68,0,0,1,3.91-5c.63-.71,1.25-1.35,1.82-1.92s1.11-1.06,1.58-1.47l.65-.56.54-.44.66-.51a5,5,0,0,1,2.84-1,3,3,0,0,1,.61.06A2.18,2.18,0,0,1,92,53a1.56,1.56,0,0,1,.71.69,1.78,1.78,0,0,1,.18,1,2.66,2.66,0,0,1-.1.52,3.2,3.2,0,0,1-.21.53,5.4,5.4,0,0,1-1.71,2l-.58.42-.48.36-.6.46c-.43.34-.93.75-1.47,1.22s-1.13,1-1.75,1.62A51.78,51.78,0,0,0,82,66a56.93,56.93,0,0,0-3.85,5.29c-.6.93-1.16,1.88-1.69,2.82s-.88,1.66-1.27,2.47h0a52.3,52.3,0,0,1,1.13,18.58c8,2.49,16.49-6.13,20.56-12.51,5.76-9,6.51-20.86,6.47-23.5-.08-5.73-.24-7.95,1.45-12.06C105.68,45.08,104,43,101.9,41.89Z"/><path class="cls-2" d="M55.54,49.52C50,44.32,47.69,42.43,45.3,37c-1.2-2.7-4.7-3.06-7.74-2S32,38.47,32.68,41.34c1.42,5.73.78,8.62-.45,16.14-.56,3.48-1.88,19.19,3.93,32.19,4.39,9.82,14.93,24,26.9,19.92s11.62-21.76,9.08-32.21C68.78,63.54,58.12,51.92,55.54,49.52Z"/><path class="cls-1" d="M54.64,104.79c0,.11-.23.17-.61.17a5.15,5.15,0,0,1-1.59-.36,10,10,0,0,1-2.21-1.23,16.57,16.57,0,0,1-2.42-2.17,32,32,0,0,1-4.57-6.59c-.7-1.29-1.35-2.66-2-4.07s-1.17-2.88-1.68-4.37a71.06,71.06,0,0,1-2.43-9A67.85,67.85,0,0,1,36,68.85c-.09-1.26-.14-2.44-.16-3.52s0-2,0-2.87c0-.42,0-.8.06-1.14l.07-.92c.05-.54.09-.91.12-1.1a6.65,6.65,0,0,1,1.64-3.66,4.11,4.11,0,0,1,.63-.53,2.93,2.93,0,0,1,.66-.34,2.09,2.09,0,0,1,1.32,0,2.37,2.37,0,0,1,1.1.73,3.26,3.26,0,0,1,.41.57,4.25,4.25,0,0,1,.32.69,7.21,7.21,0,0,1,.31,3.46c0,.16-.07.48-.13.94l-.1.79c0,.3-.07.63-.11,1-.07.73-.14,1.58-.18,2.54s-.07,2-.06,3.17a69.6,69.6,0,0,0,.5,7.72A75.75,75.75,0,0,0,44,84.89c.34,1.43.73,2.85,1.15,4.22s.89,2.71,1.38,4a36.68,36.68,0,0,0,3.27,6.56,19.49,19.49,0,0,0,1.72,2.29,13.78,13.78,0,0,0,1.57,1.53c.47.39.88.65,1.15.87S54.66,104.68,54.64,104.79Z"/><path class="cls-3" d="M33.16,164a6.58,6.58,0,0,0,3.33.94c1.9,0,3-1,3-2.46s-.77-2.11-2.71-2.86c-2.35-.83-3.8-2-3.8-4.08,0-2.24,1.86-3.91,4.65-3.91a6.53,6.53,0,0,1,3.18.7l-.51,1.52a5.72,5.72,0,0,0-2.73-.68c-2,0-2.71,1.17-2.71,2.16,0,1.34.88,2,2.86,2.78,2.43.94,3.67,2.11,3.67,4.23s-1.64,4.16-5,4.16a7.44,7.44,0,0,1-3.67-.94Z"/><path class="cls-3" d="M51.39,159.55H45.8v5.19H52v1.56H43.94V151.91h7.77v1.56H45.8V158h5.59Z"/><path class="cls-3" d="M54.19,164a6.58,6.58,0,0,0,3.33.94c1.9,0,3-1,3-2.46s-.77-2.11-2.71-2.86c-2.35-.83-3.8-2-3.8-4.08,0-2.24,1.86-3.91,4.65-3.91a6.53,6.53,0,0,1,3.18.7l-.51,1.52a5.72,5.72,0,0,0-2.73-.68c-2,0-2.71,1.17-2.71,2.16,0,1.34.88,2,2.86,2.78,2.43.94,3.67,2.11,3.67,4.23s-1.64,4.16-5,4.16a7.44,7.44,0,0,1-3.67-.94Z"/><path class="cls-3" d="M67.3,161.77l-1.49,4.53H63.88l4.89-14.39H71l4.91,14.39h-2l-1.54-4.53ZM72,160.32l-1.41-4.14c-.32-.94-.53-1.79-.75-2.63h0c-.21.85-.45,1.73-.73,2.6l-1.41,4.16Z"/><path class="cls-3" d="M90.08,160c-.11-2-.23-4.42-.21-6.21H89.8c-.49,1.69-1.09,3.5-1.81,5.46l-2.54,7H84l-2.33-6.85c-.68-2-1.26-3.89-1.67-5.59h0c0,1.79-.15,4.21-.28,6.36l-.38,6.17H77.57l1-14.39h2.37l2.46,7c.6,1.77,1.09,3.35,1.45,4.85h.06c.36-1.45.88-3,1.52-4.85l2.56-7h2.37l.9,14.39H90.44Z"/><path class="cls-3" d="M102.57,159.55H97v5.19h6.23v1.56H95.12V151.91h7.77v1.56H97V158h5.59Z"/></g></g></svg>