<svg xmlns="http://www.w3.org/2000/svg" viewBox="0 0 133.39 163.27"><defs><style>.cls-1{fill:#231f20;}.cls-2{fill:#fff;}</style></defs><title>Asset 22</title><g id="Layer_2" data-name="Layer 2"><g id="Layer_22" data-name="Layer 22"><circle class="cls-1" cx="66.69" cy="66.69" r="66.69"/><path class="cls-1" d="M20.81,160.78a6.58,6.58,0,0,0,3.33.94c1.9,0,3-1,3-2.46s-.77-2.11-2.71-2.86c-2.35-.83-3.8-2-3.8-4.08,0-2.24,1.86-3.91,4.65-3.91a6.53,6.53,0,0,1,3.18.7L28,150.64a5.73,5.73,0,0,0-2.73-.68c-2,0-2.71,1.17-2.71,2.16,0,1.34.88,2,2.86,2.78,2.43.94,3.67,2.11,3.67,4.23s-1.64,4.16-5,4.16a7.43,7.43,0,0,1-3.67-.94Z"/><path class="cls-1" d="M33.45,148.65v6h7v-6h1.88V163H40.41v-6.75h-7V163H31.6V148.65Z"/><path class="cls-1" d="M53,156.29H47.37v5.19h6.23V163H45.52V148.65h7.77v1.56H47.37v4.55H53Z"/><path class="cls-1" d="M56,148.65h1.86v12.83H64V163H56Z"/><path class="cls-1" d="M66.1,148.65H68v12.83H74.1V163h-8Z"/><path class="cls-1" d="M76.18,148.65h7.75v1.56H78V155h5.44v1.54H78V163H76.18Z"/><path class="cls-1" d="M88.43,148.65V163H86.58V148.65Z"/><path class="cls-1" d="M91.42,160.78a6.58,6.58,0,0,0,3.33.94c1.9,0,3-1,3-2.46s-.77-2.11-2.71-2.86c-2.35-.83-3.8-2-3.8-4.08,0-2.24,1.86-3.91,4.65-3.91a6.53,6.53,0,0,1,3.18.7l-.51,1.52a5.73,5.73,0,0,0-2.73-.68c-2,0-2.71,1.17-2.71,2.16,0,1.34.88,2,2.86,2.78,2.43.94,3.67,2.11,3.67,4.23s-1.64,4.16-5,4.16a7.43,7.43,0,0,1-3.67-.94Z"/><path class="cls-1" d="M104.06,148.65v6h7v-6h1.88V163H111v-6.75h-7V163H102.2V148.65Z"/><path class="cls-2" d="M109.49,52.54c-16-24-42.79-22.9-42.79-22.9S39.88,28.56,23.9,52.54c-3.48,5.22-2.14,10.54-.89,13.94C25.85,74.19,36.14,81.28,40.48,86,44.55,90.47,48,93.91,48,93.91l-2.81,4c-2.81,4,4.68,6.09,4.68,6.09H83.51s7.49-2.11,4.68-6.09l-2.81-4s3.45-3.44,7.53-7.89c4.34-4.74,14.63-11.83,17.47-19.54C111.63,63.08,113,57.76,109.49,52.54Z"/><path class="cls-1" d="M78.67,84.43c2.45-4.29,14.12-19.36,21.44-27.8a1.88,1.88,0,0,1,1.43-.71,2.3,2.3,0,0,1,2,1.31,1.74,1.74,0,0,1-.33,1.95C95.85,67.66,82.56,81.39,78.67,84.43Zm-24,0c-3.9-3-17.18-16.77-24.52-25.24a1.74,1.74,0,0,1-.33-1.95,2.3,2.3,0,0,1,2-1.31,1.88,1.88,0,0,1,1.43.71C40.6,65.07,52.27,80.14,54.72,84.43Zm6.23-2.19C58.3,78,50,58.68,45.81,47.11a2,2,0,0,1,.19-1.9,2.55,2.55,0,0,1,2-1A2,2,0,0,1,50,45.59C54.2,57.16,60.28,77.32,60.95,82.23Zm11.49,0c.67-4.92,6.75-25.07,11-36.64a2,2,0,0,1,1.94-1.4,2.55,2.55,0,0,1,2,1,2,2,0,0,1,.19,1.9C83.37,58.68,75.09,78,72.44,82.23Zm-5.75-2.17c-1.05-4.85-2.22-25.87-2.22-38.18a2.23,2.23,0,0,1,4.45,0C68.92,54.19,67.75,75.21,66.69,80.06Z"/></g></g></svg>