<svg xmlns="http://www.w3.org/2000/svg" viewBox="0 0 133.38 156.54"><defs><style>.cls-1{fill:#276031;}.cls-2{fill:#fff;}.cls-3{fill:#231f20;}</style></defs><title>Asset 18</title><g id="Layer_2" data-name="Layer 2"><g id="Layer_18" data-name="Layer 18"><circle class="cls-1" cx="66.69" cy="66.69" r="66.69"/><path class="cls-2" d="M85.91,30.69l.84-8.24-4.1-.19.08,8.17c-7.72.43-14.14,8.35-14.6,18.36a23.84,23.84,0,0,0,.57,6.41c-4.61,2-8.72,6.45-10.85,12.33a23.3,23.3,0,0,0-1.4,9,23.16,23.16,0,0,0-8.66,3.86c-6.59,4.71-9.92,11.94-8.92,18.09.08,1.86-.07,4.92-1.8,6.24-2.48,1.9-2.85,3-2.48,3.48h0c.37.52,1.49.52,4.1-1.21,1.86-1.23,4.91-.31,6.62.37,5.49,2.84,13.33,2,19.86-2.65,5.26-3.76,8.44-9.12,9-14.26,5-1.82,9.52-6.42,11.79-12.7a23.06,23.06,0,0,0,1.33-10.06C93.16,65.27,97.61,58.42,98,50.16,98.43,40.5,93.16,32.26,85.91,30.69Z"/><ellipse class="cls-1" cx="54.78" cy="93.71" rx="12.38" ry="9.7" transform="translate(-44.26 49.3) rotate(-35.54)"/><path class="cls-2" d="M46.33,98.39c.13,0,.21-.34.24-.42.1-.28.19-.56.3-.84a14.28,14.28,0,0,1,.84-1.83,16.18,16.18,0,0,1,2.56-3.44,13.8,13.8,0,0,1,3.4-2.62,6.62,6.62,0,0,1,4-.89c.55.08,1,.34,1.58.43a1.69,1.69,0,0,0,1.62-.47,1.32,1.32,0,0,0-.36-1.66A3,3,0,0,0,59.21,86c-2.78-.8-5.65.4-7.8,2.14a15.63,15.63,0,0,0-4.06,5,11.64,11.64,0,0,0-1.07,3,6.7,6.7,0,0,0-.14,1.32c0,.12,0,.91.2.92Z"/><ellipse class="cls-1" cx="71.84" cy="72.78" rx="12.38" ry="9.7" transform="translate(-21.05 115.53) rotate(-70.09)"/><path class="cls-2" d="M65.59,79.63c.12,0,.07-.39.06-.48,0-.3,0-.59,0-.89a13.84,13.84,0,0,1,.1-2A16.21,16.21,0,0,1,66.8,72.1a13.9,13.9,0,0,1,2.12-3.62,6.79,6.79,0,0,1,3.29-2.35c.54-.15,1.08-.1,1.62-.2A1.87,1.87,0,0,0,75.28,65c.27-.65-.28-1.26-.85-1.51a2.92,2.92,0,0,0-1.49-.19c-2.84.27-5,2.4-6.4,4.77a15.59,15.59,0,0,0-2,6.32,11.67,11.67,0,0,0,.12,3.18,6.9,6.9,0,0,0,.36,1.28c0,.11.33.85.53.78Z"/><ellipse class="cls-1" cx="83.09" cy="48.79" rx="12.38" ry="9.7" transform="translate(8.15 109.36) rotate(-69.37)"/><path class="cls-2" d="M76.76,55.56c.12,0,.07-.39.07-.48,0-.29,0-.58,0-.87a14.08,14.08,0,0,1,.11-2,16.12,16.12,0,0,1,1.14-4.18,13.76,13.76,0,0,1,2.23-3.69,6.69,6.69,0,0,1,3.34-2.26c.54-.13,1.09-.07,1.62-.17a1.72,1.72,0,0,0,1.42-1c.16-.64-.4-1.18-.94-1.4a3.05,3.05,0,0,0-1.54-.17c-2.86.3-5.08,2.46-6.44,4.85a15.59,15.59,0,0,0-2,6.28,11.55,11.55,0,0,0,.1,3,6.34,6.34,0,0,0,.35,1.29c0,.11.31.86.51.78Z"/><path class="cls-3" d="M52.5,154a6.58,6.58,0,0,0,3.33.94c1.9,0,3-1,3-2.46s-.77-2.11-2.71-2.86c-2.35-.83-3.8-2-3.8-4.08,0-2.24,1.86-3.91,4.65-3.91a6.53,6.53,0,0,1,3.18.7l-.51,1.52a5.73,5.73,0,0,0-2.73-.68c-2,0-2.71,1.17-2.71,2.16,0,1.34.87,2,2.86,2.78,2.43.94,3.67,2.11,3.67,4.23s-1.64,4.16-5,4.16A7.43,7.43,0,0,1,52,155.6Z"/><path class="cls-3" d="M75.58,149c0,5-3,7.58-6.68,7.58s-6.47-2.95-6.47-7.3c0-4.57,2.84-7.56,6.68-7.56S75.58,144.69,75.58,149Zm-11.17.24c0,3.07,1.67,5.83,4.59,5.83s4.61-2.71,4.61-6c0-2.86-1.49-5.85-4.59-5.85S64.41,146,64.41,149.2Z"/><path class="cls-3" d="M80.6,156.31V150.2L76,141.92h2.11l2,4c.55,1.09,1,2,1.43,3h0c.41-.94.9-1.88,1.45-3l2.07-4H87.3l-4.82,8.26v6.13Z"/></g></g></svg>