<svg xmlns="http://www.w3.org/2000/svg" viewBox="0 0 133.39 156.54"><defs><style>.cls-1{fill:#8f6249;}.cls-2{fill:#fff;}.cls-3{fill:#231f20;}</style></defs><title>Asset 14</title><g id="Layer_2" data-name="Layer 2"><g id="Layer_14" data-name="Layer 14"><circle class="cls-1" cx="66.69" cy="66.69" r="66.69"/><path class="cls-2" d="M50.36,54.16a28.2,28.2,0,0,1-1.63-9.52c0-12.68,8-23,18-23s18,10.28,18,23A28.24,28.24,0,0,1,83,54.16c-.6,1.67-.05,6.63.92,7.77a29,29,0,0,1,3.29,4.75,32.85,32.85,0,0,1,4,15.92c0,16.07-11,29.1-24.56,29.1s-24.55-13-24.55-29.1a32.85,32.85,0,0,1,4-15.92,28.46,28.46,0,0,1,4.3-5.88C51.13,60.1,51,55.83,50.36,54.16Z"/><ellipse class="cls-1" cx="52.68" cy="96.45" rx="4.07" ry="5.89" transform="translate(-33.2 27.88) rotate(-22.75)"/><ellipse class="cls-1" cx="50.45" cy="80.02" rx="6.52" ry="4.6" transform="translate(-30.47 129) rotate(-88.95)"/><path class="cls-1" d="M64.8,72.66c.63,1.94,0,4.08-1.42,4.77s-3.07-.32-3.71-2.26,0-4.08,1.42-4.77S64.17,70.72,64.8,72.66Z"/><ellipse class="cls-1" cx="55.06" cy="46.11" rx="2.89" ry="4.08" transform="translate(-5.67 7.78) rotate(-7.68)"/><path class="cls-1" d="M64.62,40.52c0,1.68-1,3.18-2.34,3.36s-2.39-1-2.42-2.71,1-3.18,2.34-3.36S64.6,38.84,64.62,40.52Z"/><ellipse class="cls-1" cx="56.69" cy="34.13" rx="3.31" ry="2.35" transform="translate(10.89 81.89) rotate(-77.25)"/><ellipse class="cls-1" cx="63.35" cy="88.23" rx="4.46" ry="6.47" transform="translate(-24.32 24.11) rotate(-18.14)"/><path class="cls-3" d="M27.62,142.09a21.51,21.51,0,0,1,3.56-.28,5.91,5.91,0,0,1,4,1.2,3.87,3.87,0,0,1,1.26,3,4.24,4.24,0,0,1-1.11,3.07,6,6,0,0,1-4.4,1.58,6.41,6.41,0,0,1-1.49-.13v5.76H27.62ZM29.48,149a6.25,6.25,0,0,0,1.54.15c2.24,0,3.61-1.09,3.61-3.07s-1.34-2.82-3.39-2.82a7.77,7.77,0,0,0-1.75.15Z"/><path class="cls-3" d="M46.43,149.56H40.84v5.19h6.23v1.56H39V141.92h7.77v1.56H40.84V148h5.59Z"/><path class="cls-3" d="M51.81,151.78l-1.49,4.53H48.4l4.89-14.39h2.24l4.91,14.39h-2l-1.54-4.53Zm4.72-1.45-1.41-4.14c-.32-.94-.53-1.79-.75-2.63h0c-.21.85-.45,1.73-.73,2.6l-1.41,4.16Z"/><path class="cls-3" d="M62.55,156.31V141.92h2l4.61,7.28a40.75,40.75,0,0,1,2.58,4.67l0,0c-.17-1.92-.21-3.67-.21-5.91v-6h1.75v14.39H71.47L66.91,149a45.63,45.63,0,0,1-2.69-4.8l-.06,0c.11,1.81.15,3.54.15,5.93v6.15Z"/><path class="cls-3" d="M78.46,141.92v8.52c0,3.22,1.43,4.59,3.35,4.59,2.13,0,3.5-1.41,3.5-4.59v-8.52h1.88v8.39c0,4.42-2.33,6.23-5.44,6.23-2.95,0-5.17-1.69-5.17-6.15v-8.47Z"/><path class="cls-3" d="M93.15,143.5H88.77v-1.58H99.42v1.58H95v12.81H93.15Z"/><path class="cls-3" d="M100.64,154A6.58,6.58,0,0,0,104,155c1.9,0,3-1,3-2.46s-.77-2.11-2.71-2.86c-2.35-.83-3.8-2-3.8-4.08,0-2.24,1.86-3.91,4.65-3.91a6.53,6.53,0,0,1,3.18.7l-.51,1.52a5.72,5.72,0,0,0-2.73-.68c-2,0-2.71,1.17-2.71,2.16,0,1.34.88,2,2.86,2.78,2.43.94,3.67,2.11,3.67,4.23s-1.64,4.16-5,4.16a7.44,7.44,0,0,1-3.67-.94Z"/></g></g></svg>