<svg xmlns="http://www.w3.org/2000/svg" viewBox="0 0 133.39 162.4"><defs><style>.cls-1{fill:#f6921e;}.cls-2{fill:#fff;fill-rule:evenodd;}.cls-3{fill:#231f20;}</style></defs><title>Asset 12</title><g id="Layer_2" data-name="Layer 2"><g id="Layer_12" data-name="Layer 12"><circle class="cls-1" cx="66.69" cy="66.69" r="66.69"/><path class="cls-2" d="M103.5,76.16c0-19.54-16.48-54.48-36.81-54.48S29.88,56.62,29.88,76.16s16.48,35.38,36.81,35.38S103.5,95.69,103.5,76.16Z"/><path class="cls-1" d="M45.76,98c-.28.21-1.16-.32-2.29-1.64A20.11,20.11,0,0,1,40,90.06,33.91,33.91,0,0,1,38.2,79.91a53,53,0,0,1,1-11.79,72.35,72.35,0,0,1,3.27-11.48,81.15,81.15,0,0,1,4.41-9.75,68.11,68.11,0,0,1,6.56-10.16,7.24,7.24,0,0,1,4.41-2.63,4.52,4.52,0,0,1,4,1.26,5.28,5.28,0,0,1,1.37,3.93,7.06,7.06,0,0,1-1.63,4.17,80.21,80.21,0,0,0-6.34,8.39,82.28,82.28,0,0,0-4.75,8.27A74.05,74.05,0,0,0,46.46,70a55,55,0,0,0-2.35,10.17A37.31,37.31,0,0,0,44,89.1C44.57,94.32,46.39,97.58,45.76,98Z"/><path class="cls-3" d="M57.93,155.51H52.33v5.19h6.23v1.56H50.48V147.87h7.77v1.56H52.33V154h5.59Z"/><path class="cls-3" d="M71.93,161.61a13.41,13.41,0,0,1-4.42.79,6.76,6.76,0,0,1-7.39-7.26c0-4.29,3-7.43,7.79-7.43a8.9,8.9,0,0,1,3.59.66l-.45,1.52a7.48,7.48,0,0,0-3.18-.62,5.38,5.38,0,0,0-5.79,5.78c0,3.65,2.2,5.81,5.55,5.81a6.07,6.07,0,0,0,2.48-.38v-4.29H67.19V154.7h4.74Z"/><path class="cls-3" d="M85.72,161.61a13.4,13.4,0,0,1-4.42.79,6.76,6.76,0,0,1-7.39-7.26c0-4.29,3-7.43,7.79-7.43a8.9,8.9,0,0,1,3.59.66l-.45,1.52a7.47,7.47,0,0,0-3.18-.62,5.38,5.38,0,0,0-5.79,5.78c0,3.65,2.2,5.81,5.55,5.81a6.07,6.07,0,0,0,2.48-.38v-4.29H81V154.7h4.74Z"/></g></g></svg>