<svg xmlns="http://www.w3.org/2000/svg" viewBox="0 0 133.39 166.53"><defs><style>.cls-1{fill:#f05b66;}.cls-2{fill:#fff;}.cls-3{fill:#231f20;}</style></defs><title>Asset 6</title><g id="Layer_2" data-name="Layer 2"><g id="Layer_6" data-name="Layer 6"><circle class="cls-1" cx="66.69" cy="66.69" r="66.69"/><path class="cls-2" d="M74.16,32c-2-.77-4.47-5.54-5.4-4.29-13,17.4-12.54,57.14,0,76.82a3.93,3.93,0,0,0,3.3,1.33c12.94-1.2,31.31-9.45,31.31-31.53C103.38,53.8,85.95,36.57,74.16,32Z"/><path class="cls-2" d="M62.37,30.81c-.28-.14-2.4.91-3.15,1.2C47.44,36.57,30,53.8,30,74.34c0,22,18.27,30.28,31.2,31.51C62.36,106,39.12,61.54,62.37,30.81Z"/><path class="cls-1" d="M70.86,81.48a.72.72,0,0,0,.49-.69A6.76,6.76,0,0,0,71,79.17a31.61,31.61,0,0,1-.8-4.31,39.78,39.78,0,0,1,.12-9c.13-1.08.47-2.29-.15-3.28a1.69,1.69,0,0,0-1.38-.83,1.84,1.84,0,0,0-1.51.86,4.92,4.92,0,0,0-.56,2.58,40,40,0,0,0,0,4.33,29.35,29.35,0,0,0,1.13,7,18,18,0,0,0,1.29,3.23A7.5,7.5,0,0,0,69.92,81,1.09,1.09,0,0,0,70.86,81.48Z"/><path class="cls-1" d="M81.48,54.9c.19-.52.38-1,.62-1.53a7.46,7.46,0,0,0,.56-1.2,1.87,1.87,0,0,0-.49-1.76,1.83,1.83,0,0,0-3,.55,14.42,14.42,0,0,0-.8,2.35,19,19,0,0,0-.48,6.25,14.35,14.35,0,0,0,.34,2.14,5.78,5.78,0,0,0,.47,1.41.76.76,0,0,0,1,.4,1.35,1.35,0,0,0,.46-1c.12-1,.16-1.92.27-2.88.07-.58.16-1.14.25-1.72A18.25,18.25,0,0,1,81.48,54.9Z"/><path class="cls-1" d="M68.71,49.8a13.64,13.64,0,0,0,.18,1.91,1.59,1.59,0,0,0,.44,1,.71.71,0,0,0,.73.05,1.46,1.46,0,0,0,.56-.89,38.3,38.3,0,0,0,.88-3.81c.12-.54.24-1.09.39-1.62.3-1.15.62-2.29,1-3.42a2.84,2.84,0,0,0,.24-2.23A1.94,1.94,0,0,0,70,40.26a2.35,2.35,0,0,0-.5,1.14c-.11.46-.21.93-.3,1.39-.13.67-.24,1.37-.31,2a38.9,38.9,0,0,0-.24,3.93C68.69,49.12,68.7,49.46,68.71,49.8Z"/><path class="cls-1" d="M84.89,73.89a1.83,1.83,0,0,0-3.07,0,3.18,3.18,0,0,0-.39,1.48c0,.36-.07.71-.09,1.07a27.26,27.26,0,0,0,.29,6.27,16.83,16.83,0,0,0,1.1,3.75,9.18,9.18,0,0,0,.64,1.26c.25.41.64,1.05,1.2,1s.64-.62.59-1.06-.16-.95-.26-1.42a26.72,26.72,0,0,1,.11-10,3,3,0,0,0-.12-2.35Z"/><path class="cls-1" d="M76.11,97A27.06,27.06,0,0,1,75,93.29,29.13,29.13,0,0,1,74.44,90c-.06-.62-.11-1.25-.14-1.87A3.2,3.2,0,0,0,74,86.43a1.94,1.94,0,0,0-3.18.07,2.31,2.31,0,0,0-.17,1.63c.09.63.2,1.25.32,1.87a20.69,20.69,0,0,0,1.91,5.48,11,11,0,0,0,1.51,2.2c.35.41,1.06,1.14,1.65.71s.25-1,.09-1.42Z"/><path class="cls-1" d="M96.92,66.21a23.64,23.64,0,0,0-.54-3.2c-.24-1.05-.94-2.3-2.17-2.31-1.42,0-1.81,1.68-1.54,2.79.1.42.25.83.36,1.25.17.63.3,1.27.41,1.91a25.38,25.38,0,0,1-.2,8.64c-.25,1.39-.6,2.75-1,4.12a10.37,10.37,0,0,0-.33,1.5.83.83,0,0,0,.15.7c.81.8,1.61-.81,1.88-1.33A25.92,25.92,0,0,0,96.71,72a23.64,23.64,0,0,0,.21-5.81Z"/><path class="cls-1" d="M44,53.36a35.8,35.8,0,0,1,2.81-4.83,2.62,2.62,0,0,0,.57-1.26,1.9,1.9,0,0,0-.75-1.65,1.85,1.85,0,0,0-1.84-.21,2.24,2.24,0,0,0-1,1,25,25,0,0,0-3.33,10,8.67,8.67,0,0,0,0,1.44,1.5,1.5,0,0,0,.36,1.06.72.72,0,0,0,1.06-.23,6.56,6.56,0,0,0,.64-1.52c.45-1.29,1-2.55,1.53-3.79C44.74,51.82,44,53.47,44,53.36Z"/><path class="cls-1" d="M46.63,75.55c.42-.19.43-.65.39-1.05-.06-.66-.2-1.32-.27-2a17,17,0,0,1,.14-4.44,17.32,17.32,0,0,1,1.16-4,2.79,2.79,0,0,0,.37-1.48,2,2,0,0,0-1-1.47,1.79,1.79,0,0,0-1.85.12,2.24,2.24,0,0,0-.8,1.14,17,17,0,0,0-.87,3.71,16.68,16.68,0,0,0,0,4.52,11.13,11.13,0,0,0,1.29,4c.27.46.77,1.26,1.42,1Z"/><path class="cls-1" d="M38.74,81.87a19.69,19.69,0,0,1-.5-8.78q.13-.78.3-1.55a6.54,6.54,0,0,0,.2-1,1.87,1.87,0,0,0-2.38-2,2,2,0,0,0-1.23,1.27,6.28,6.28,0,0,0-.21,1.13,22.52,22.52,0,0,0-.22,4.15,16.09,16.09,0,0,0,2.43,8.25c.33.5,1.13,1.76,1.89,1.24a.81.81,0,0,0,.25-.91c-.12-.61-.35-1.19-.53-1.79Z"/><path class="cls-1" d="M50.62,96.16c-.27-1.12-.54-2.23-.71-3.37a16.24,16.24,0,0,1-.09-4.15,2.4,2.4,0,0,0-.16-1.77A2.08,2.08,0,0,0,48,86a1.77,1.77,0,0,0-1.59.84,3.18,3.18,0,0,0-.25,1.59,16.58,16.58,0,0,0,2,7.76c.2.36.4.72.64,1.07a3.31,3.31,0,0,0,1.12,1.2.72.72,0,0,0,1-.72A6,6,0,0,0,50.62,96.16Z"/><path class="cls-3" d="M45.09,166.3V151.91h2l4.61,7.28a40.76,40.76,0,0,1,2.58,4.67l0,0c-.17-1.92-.21-3.67-.21-5.91v-6h1.75V166.3H54L49.44,159a45.64,45.64,0,0,1-2.69-4.8l-.06,0c.11,1.81.15,3.54.15,5.93v6.15Z"/><path class="cls-3" d="M61,151.91v8.52c0,3.22,1.43,4.59,3.35,4.59,2.13,0,3.5-1.41,3.5-4.59v-8.52h1.88v8.39c0,4.42-2.33,6.23-5.44,6.23-2.95,0-5.17-1.69-5.17-6.15v-8.47Z"/><path class="cls-3" d="M75.68,153.49H71.31v-1.58H82v1.58h-4.4V166.3H75.68Z"/><path class="cls-3" d="M83.18,164a6.58,6.58,0,0,0,3.33.94c1.9,0,3-1,3-2.46s-.77-2.11-2.71-2.86c-2.35-.83-3.8-2-3.8-4.08,0-2.24,1.86-3.91,4.65-3.91a6.53,6.53,0,0,1,3.18.7l-.51,1.52a5.72,5.72,0,0,0-2.73-.68c-2,0-2.71,1.17-2.71,2.16,0,1.34.88,2,2.86,2.78,2.43.94,3.67,2.11,3.67,4.23s-1.64,4.16-5,4.16a7.44,7.44,0,0,1-3.67-.94Z"/></g></g></svg>