<svg xmlns="http://www.w3.org/2000/svg" viewBox="0 0 133.39 162.58"><defs><style>.cls-1{fill:#00b39b;}.cls-2{fill:#fff;}.cls-3{fill:#231f20;}</style></defs><title>Asset 21</title><g id="Layer_2" data-name="Layer 2"><g id="Layer_21" data-name="Layer 21"><circle class="cls-1" cx="66.69" cy="66.69" r="66.69"/><path class="cls-2" d="M109.49,52C93.5,28,66.69,30,66.69,30S39.88,28,23.9,52C20.42,57.2,21.76,62.51,23,65.91c2.84,7.71,13.13,14.8,17.47,19.54C44.55,89.9,48,93.34,48,93.34l-2.81,4c-2.81,4,4.68,6.09,4.68,6.09H83.51s7.49-2.11,4.68-6.09l-2.81-4s3.46-3.44,7.53-7.89c4.34-4.74,14.63-11.83,17.47-19.54C111.63,62.51,113,57.2,109.49,52Z"/><path class="cls-1" d="M63.9,41.31c0,12.29,1.4,39.56,2.79,39.56s2.79-27.27,2.79-39.56c0-3.6-5.58-3.6-5.58,0Z"/><path class="cls-1" d="M88.12,46.74C83.92,58.29,73.28,83.44,72,83s6.7-26.59,10.9-38.13c1.23-3.39,6.48-1.47,5.25,1.91Z"/><path class="cls-1" d="M103.62,59c-7.44,8.59-24.94,26.83-25.93,26s14.54-20.71,22-29.3c2.18-2.52,6.12.78,3.94,3.3Z"/><path class="cls-1" d="M45.27,46.74C49.47,58.29,60.11,83.44,61.42,83s-6.7-26.59-10.9-38.13c-1.23-3.39-6.48-1.47-5.25,1.91Z"/><path class="cls-1" d="M29.77,59c7.44,8.59,24.94,26.83,25.93,26s-14.54-20.71-22-29.3c-2.18-2.52-6.12.78-3.94,3.3Z"/><path class="cls-3" d="M22,160.08a6.58,6.58,0,0,0,3.33.94c1.9,0,3-1,3-2.46s-.77-2.11-2.71-2.86c-2.35-.83-3.8-2-3.8-4.08,0-2.24,1.86-3.91,4.65-3.91a6.53,6.53,0,0,1,3.18.71l-.51,1.52a5.73,5.73,0,0,0-2.73-.68c-2,0-2.71,1.17-2.71,2.16,0,1.34.88,2,2.86,2.78,2.43.94,3.67,2.11,3.67,4.23s-1.64,4.16-5,4.16a7.43,7.43,0,0,1-3.67-.94Z"/><path class="cls-3" d="M34.66,148v6h7v-6H43.5v14.39H41.62V155.6h-7v6.75H32.8V148Z"/><path class="cls-3" d="M54.17,155.6H48.58v5.19h6.23v1.56H46.72V148h7.77v1.56H48.58v4.55h5.59Z"/><path class="cls-3" d="M57.23,148h1.86v12.83h6.15v1.56h-8Z"/><path class="cls-3" d="M67.3,148h1.86v12.83h6.15v1.56h-8Z"/><path class="cls-3" d="M77.38,148h7.75v1.56H79.24v4.78h5.44v1.54H79.24v6.51H77.38Z"/><path class="cls-3" d="M89.64,148v14.39H87.78V148Z"/><path class="cls-3" d="M92.63,160.08A6.58,6.58,0,0,0,96,161c1.9,0,3-1,3-2.46s-.77-2.11-2.71-2.86c-2.35-.83-3.8-2-3.8-4.08,0-2.24,1.86-3.91,4.65-3.91a6.53,6.53,0,0,1,3.18.71l-.51,1.52a5.73,5.73,0,0,0-2.73-.68c-2,0-2.71,1.17-2.71,2.16,0,1.34.88,2,2.86,2.78,2.43.94,3.67,2.11,3.67,4.23s-1.64,4.16-5,4.16a7.43,7.43,0,0,1-3.67-.94Z"/><path class="cls-3" d="M105.27,148v6h7v-6h1.88v14.39h-1.88V155.6h-7v6.75h-1.86V148Z"/></g></g></svg>